PathFileType	4	(X/Y/Z)	C:\Users\86182\Documents\cortex\Trimmed_M4_L12.trc
DataRate	CameraRate	NumFrames	NumMarkers	Units	OrigDataRate	OrigDataStartFrame	OrigNumFrames
100.00	100.00	       140	2	mm	100.00	361	       901
Frame#	Time	gripper			box			
		X1	Y1	Z1	X2	Y2	Z2	

361	3.600	274.57047	150.43269	292.41306	276.68381	147.78615	156.97107	
362	3.610	274.54529	150.43559	292.46417	276.70093	147.79346	157.03783	
363	3.620	274.52158	150.43945	292.49997	276.71967	147.79527	157.08783	
364	3.630	274.49927	150.44379	292.52396	276.73871	147.79285	157.12262	
365	3.640	274.47992	150.44781	292.53864	276.75586	147.78796	157.14468	
366	3.650	274.46643	150.45078	292.54568	276.76950	147.78226	157.15698	
367	3.660	274.46118	150.45213	292.54654	276.77905	147.77684	157.16260	
368	3.670	274.46490	150.45171	292.54260	276.78476	147.77225	157.16415	
369	3.680	274.47668	150.44969	292.53537	276.78748	147.76866	157.16365	
370	3.690	274.49423	150.44656	292.52628	276.78821	147.76616	157.16226	
371	3.700	274.51462	150.44292	292.51672	276.78796	147.76471	157.16049	
372	3.710	274.53482	150.43936	292.50793	276.78745	147.76422	157.15863	
373	3.720	274.55240	150.43636	292.50073	276.78708	147.76437	157.15695	
374	3.730	274.56598	150.43417	292.49554	276.78693	147.76476	157.15588	
375	3.740	274.57532	150.43280	292.49222	276.78687	147.76495	157.15561	
376	3.750	274.58084	150.43202	292.49042	276.78677	147.76480	157.15622	
377	3.760	274.58319	150.43152	292.48965	276.78641	147.76430	157.15735	
378	3.770	274.58282	150.43089	292.48950	276.78555	147.76367	157.15836	
379	3.780	274.57990	150.42975	292.48956	276.78381	147.76324	157.15848	
380	3.790	274.57440	150.42766	292.48950	276.78073	147.76326	157.15701	
381	3.800	274.56613	150.42432	292.48914	276.77557	147.76382	157.15349	
382	3.810	274.55515	150.41960	292.48831	276.76779	147.76491	157.14786	
383	3.820	274.54205	150.41379	292.48706	276.75711	147.76628	157.14050	
384	3.830	274.52847	150.40761	292.48541	276.74411	147.76773	157.13232	
385	3.840	274.51660	150.40216	292.48380	276.73080	147.76923	157.12453	
386	3.850	274.50830	150.39833	292.48254	276.72043	147.77078	157.11861	
387	3.860	274.50461	150.39661	292.48206	276.71643	147.77225	157.11588	
388	3.870	274.50540	150.39690	292.48254	276.72079	147.77327	157.11682	
389	3.880	274.50934	150.39861	292.48367	276.73294	147.77339	157.12067	
390	3.890	274.51440	150.40085	292.48505	276.75024	147.77245	157.12555	
391	3.900	274.51880	150.40276	292.48633	276.76984	147.77054	157.12964	
392	3.910	274.52170	150.40401	292.48730	276.78952	147.76790	157.13159	
393	3.920	274.52338	150.40469	292.48795	276.80792	147.76479	157.13101	
394	3.930	274.52426	150.40504	292.48834	276.82367	147.76160	157.12833	
395	3.940	274.52435	150.40504	292.48853	276.83530	147.75882	157.12447	
396	3.950	274.52356	150.40463	292.48856	276.84167	147.75694	157.12051	
397	3.960	274.52200	150.40387	292.48846	276.84213	147.75636	157.11743	
398	3.970	274.52054	150.40315	292.48834	276.83679	147.75737	157.11603	
399	3.980	274.52008	150.40294	292.48828	276.82672	147.75998	157.11676	
400	3.990	274.52121	150.40352	292.48828	276.81396	147.76373	157.11954	
401	4.000	274.52383	150.40482	292.48840	276.80109	147.76767	157.12387	
402	4.010	274.52722	150.40649	292.48853	276.79025	147.77071	157.12888	
403	4.020	274.53052	150.40814	292.48865	276.78220	147.77231	157.13364	
404	4.030	274.53293	150.40933	292.48871	276.77618	147.77254	157.13724	
405	4.040	274.53400	150.40987	292.48874	276.77078	147.77185	157.13904	
406	4.050	274.53366	150.40971	292.48868	276.76511	147.77069	157.13892	
407	4.060	274.53217	150.40898	292.48859	276.75897	147.76944	157.13730	
408	4.070	274.53006	150.40794	292.48846	276.75327	147.76842	157.13492	
409	4.080	274.52808	150.40697	292.48834	276.74957	147.76772	157.13284	
410	4.090	274.52707	150.40645	292.48834	276.74945	147.76729	157.13193	
411	4.100	274.52744	150.40663	292.48840	276.75372	147.76701	157.13251	
412	4.110	274.52902	150.40739	292.48853	276.76187	147.76686	157.13416	
413	4.120	274.53107	150.40842	292.48865	276.77261	147.76666	157.13580	
414	4.130	274.53278	150.40926	292.48877	276.78464	147.76614	157.13657	
415	4.140	274.53351	150.40961	292.48883	276.79703	147.76515	157.13596	
416	4.150	274.53287	150.40929	292.48880	276.80887	147.76366	157.13394	
417	4.160	274.53088	150.40831	292.48871	276.81894	147.76193	157.13113	
418	4.170	274.52789	150.40683	292.48856	276.82559	147.76041	157.12851	
419	4.180	274.52454	150.40517	292.48840	276.82736	147.75958	157.12711	
420	4.190	274.52142	150.40363	292.48822	276.82397	147.75981	157.12766	
421	4.200	274.51917	150.40251	292.48807	276.81674	147.76109	157.13016	
422	4.210	274.51819	150.40204	292.48801	276.80807	147.76311	157.13394	
423	4.220	274.51865	150.40225	292.48804	276.80005	147.76532	157.13809	
424	4.230	274.52023	150.40303	292.48810	276.79364	147.76735	157.14182	
425	4.240	274.52243	150.40413	292.48822	276.78912	147.76892	157.14471	
426	4.250	274.52478	150.40529	292.48834	276.78632	147.77002	157.14670	
427	4.260	274.52682	150.40630	292.48846	276.78488	147.77066	157.14786	
428	4.270	274.52835	150.40704	292.48853	276.78452	147.77092	157.14832	
429	4.280	274.52933	150.40753	292.48859	276.78497	147.77089	157.14825	
430	4.290	274.53000	150.40785	292.48865	276.78619	147.77063	157.14774	
431	4.300	274.53061	150.40817	292.48865	276.78812	147.77019	157.14688	
432	4.310	274.53143	150.40857	292.48871	276.79077	147.76959	157.14572	
433	4.320	274.53250	150.40910	292.48877	276.79401	147.76889	157.14433	
434	4.330	274.53369	150.40968	292.48883	276.79745	147.76814	157.14285	
435	4.340	274.53479	150.41023	292.48889	276.80048	147.76749	157.14157	
436	4.350	274.53549	150.41058	292.48892	276.80231	147.76709	157.14084	
437	4.360	274.53558	150.41063	292.48895	276.80225	147.76712	157.14090	
438	4.370	274.53500	150.41034	292.48892	276.80029	147.76758	157.14175	
439	4.380	274.53369	150.40971	292.48883	276.79721	147.76828	157.14310	
440	4.390	274.53156	150.40865	292.48874	276.79391	147.76903	157.14450	
441	4.400	274.52847	150.40712	292.48859	276.79102	147.76971	157.14566	
442	4.410	274.52505	150.40543	292.48840	276.78873	147.77026	157.14651	
443	4.420	274.52246	150.40416	292.48825	276.78708	147.77068	157.14705	
444	4.430	274.52188	150.40385	292.48822	276.78604	147.77097	157.14731	
445	4.440	274.52365	150.40472	292.48831	276.78546	147.77113	157.14740	
446	4.450	274.52731	150.40654	292.48849	276.78534	147.77118	157.14738	
447	4.460	274.53171	150.40871	292.48874	276.78558	147.77110	157.14734	
448	4.470	274.53534	150.41051	292.48892	276.78613	147.77094	157.14726	
449	4.480	274.53708	150.41136	292.48901	276.78687	147.77072	157.14713	
450	4.490	274.53659	150.41112	292.48898	276.78775	147.77046	157.14691	
451	4.500	274.53427	150.40997	292.48886	276.78876	147.77020	157.14661	
452	4.510	274.53094	150.40834	292.48871	276.78976	147.76994	157.14627	
453	4.520	274.52740	150.40659	292.48849	276.79068	147.76973	157.14594	
454	4.530	274.52420	150.40501	292.48834	276.79120	147.76961	157.14574	
455	4.540	274.52176	150.40379	292.48822	276.79129	147.76959	157.14572	
456	4.550	274.52023	150.40305	292.48813	276.79111	147.76964	157.14581	
457	4.560	274.51959	150.40273	292.48810	276.79086	147.76971	157.14594	
458	4.570	274.51953	150.40269	292.48810	276.79065	147.76978	157.14603	
459	4.580	274.51974	150.40280	292.48810	276.79044	147.76984	157.14615	
460	4.590	274.51984	150.40285	292.48810	276.78998	147.76994	157.14633	
461	4.600	274.51944	150.40265	292.48807	276.78912	147.77011	157.14667	
462	4.610	274.51828	150.40208	292.48801	276.78802	147.77032	157.14709	
463	4.620	274.51642	150.40117	292.48792	276.78690	147.77051	157.14748	
464	4.630	274.51425	150.40010	292.48779	276.78595	147.77060	157.14771	
465	4.640	274.51239	150.39917	292.48770	276.78546	147.77055	157.14764	
466	4.650	274.51129	150.39862	292.48764	276.78577	147.77028	157.14716	
467	4.660	274.51111	150.39853	292.48764	276.78723	147.76974	157.14615	
468	4.670	274.51187	150.39891	292.48767	276.79025	147.76888	157.14453	
469	4.680	274.51349	150.39970	292.48776	276.79523	147.76770	157.14221	
470	4.690	274.51566	150.40077	292.48785	276.80209	147.76624	157.13931	
471	4.700	274.51797	150.40192	292.48798	276.81024	147.76459	157.13605	
472	4.710	274.51996	150.40289	292.48810	276.81845	147.76299	157.13278	
473	4.720	274.52124	150.40353	292.48816	276.82535	147.76164	157.13010	
474	4.730	274.52164	150.40372	292.48819	276.83002	147.76076	157.12833	
475	4.740	274.52124	150.40352	292.48816	276.83203	147.76041	157.12762	
476	4.750	274.52054	150.40318	292.48813	276.83154	147.76059	157.12796	
477	4.760	274.52005	150.40294	292.48810	276.82864	147.76128	157.12930	
478	4.770	274.51981	150.40283	292.48810	276.82364	147.76241	157.13155	
479	4.780	274.51965	150.40274	292.48810	276.81705	147.76387	157.13446	
480	4.790	274.51929	150.40257	292.48807	276.80981	147.76549	157.13763	
481	4.800	274.51852	150.40219	292.48804	276.80280	147.76704	157.14069	
482	4.810	274.51715	150.40152	292.48798	276.79681	147.76839	157.14328	
483	4.820	274.51514	150.40053	292.48785	276.79248	147.76935	157.14514	
484	4.830	274.51282	150.39938	292.48773	276.79022	147.76987	157.14606	
485	4.840	274.51077	150.39839	292.48761	276.79007	147.76991	157.14606	
486	4.850	274.50970	150.39786	292.48755	276.79187	147.76953	157.14517	
487	4.860	274.51007	150.39803	292.48755	276.79526	147.76880	157.14355	
488	4.870	274.51193	150.39896	292.48767	276.79974	147.76782	157.14151	
489	4.880	274.51511	150.40053	292.48785	276.80475	147.76671	157.13928	
490	4.890	274.51910	150.40248	292.48804	276.80978	147.76558	157.13712	
491	4.900	274.52328	150.40456	292.48828	276.81448	147.76451	157.13513	
492	4.910	274.52707	150.40642	292.48846	276.81854	147.76358	157.13345	
493	4.920	274.53000	150.40785	292.48865	276.82162	147.76286	157.13217	
494	4.930	274.53177	150.40874	292.48874	276.82303	147.76253	157.13162	
495	4.940	274.53244	150.40906	292.48877	276.82199	147.76274	157.13214	
496	4.950	274.53201	150.40886	292.48874	276.81830	147.76357	157.13380	
497	4.960	274.53036	150.40804	292.48865	276.81259	147.76483	157.13635	
498	4.970	274.52728	150.40651	292.48849	276.80600	147.76630	157.13927	
499	4.980	274.52295	150.40439	292.48828	276.79956	147.76773	157.14212	
500	4.990	274.51804	150.40196	292.48801	276.79413	147.76894	157.14453	
